<svg width="14" height="14" viewBox="0 0 14 14" fill="none" xmlns="http://www.w3.org/2000/svg">
<path d="M1.3125 7.44295C1.3125 8.37691 1.96782 9.18986 2.89185 9.32573C3.52541 9.41888 4.16588 9.49082 4.8125 9.54079V12.25L7.01111 10.0514C7.28675 9.77575 7.65895 9.62008 8.0485 9.60574C9.08371 9.56764 10.1046 9.47334 11.1081 9.3258C12.0322 9.18994 12.6875 8.37699 12.6875 7.44302V3.93199C12.6875 2.99802 12.0322 2.18507 11.1081 2.04921C9.76735 1.85209 8.39568 1.75 7.00017 1.75C5.60453 1.75 4.23273 1.85211 2.89186 2.04926C1.96783 2.18513 1.3125 2.99808 1.3125 3.93204V7.44295Z" stroke="#6B7280" stroke-linecap="round" stroke-linejoin="round"/>
</svg>
