<svg width="14" height="14" viewBox="0 0 14 14" fill="none" xmlns="http://www.w3.org/2000/svg">
<path d="M7.68725 2.94854L7.22301 2.76285V2.76285L7.68725 2.94854ZM6.72323 3.9493L6.95825 4.39061L6.72323 3.9493ZM3.869 5.47917C3.59286 5.47917 3.369 5.70303 3.369 5.97917C3.369 6.25531 3.59286 6.47917 3.869 6.47917V5.47917ZM5.05406 5.34898L5.44749 5.65754L5.05406 5.34898ZM7.03338 11.532L6.87527 12.0063L7.03338 11.532ZM11.1423 11.2416L10.7528 10.9279L11.1423 11.2416ZM12.6478 6.10451L12.1506 6.15744L12.6478 6.10451ZM5.21662 10.9264L5.37473 10.452H5.37473L5.21662 10.9264ZM9.20303 4.35617L9.65455 4.57094L9.20303 4.35617ZM3.60163 11.143L3.15325 11.3642L3.60163 11.143ZM3.82218 6.10124L3.39484 5.84166L3.82218 6.10124ZM1.61616 10.8686L2.09439 10.7227L1.61616 10.8686ZM1.79753 6.25749L1.33235 6.07416H1.33235L1.79753 6.25749ZM8.3125 4.60417C8.03636 4.60417 7.8125 4.82803 7.8125 5.10417C7.8125 5.38031 8.03636 5.60417 8.3125 5.60417V4.60417ZM8.3125 0.666672C7.79473 0.666672 7.375 1.0864 7.375 1.60417H8.375C8.375 1.63869 8.34702 1.66667 8.3125 1.66667V0.666672ZM10.125 2.47917C10.125 1.47816 9.31352 0.666672 8.3125 0.666672V1.66667C8.76123 1.66667 9.125 2.03044 9.125 2.47917H10.125ZM9.65455 4.57094C9.95635 3.93647 10.125 3.22682 10.125 2.47917H9.125C9.125 3.07509 8.99083 3.63828 8.75151 4.14139L9.65455 4.57094ZM9.62611 5.60417H11.4495V4.60417H9.62611V5.60417ZM12.1506 6.15744C12.175 6.38619 12.1875 6.61863 12.1875 6.85417H13.1875C13.1875 6.5832 13.1731 6.31542 13.145 6.05157L12.1506 6.15744ZM12.1875 6.85417C12.1875 8.39711 11.6505 9.81327 10.7528 10.9279L11.5317 11.5552C12.5673 10.2692 13.1875 8.63345 13.1875 6.85417H12.1875ZM10.2061 11.1667H7.86348V12.1667H10.2061V11.1667ZM7.19149 11.0576L5.37473 10.452L5.0585 11.4007L6.87527 12.0063L7.19149 11.0576ZM5.44749 5.65754C5.85585 5.13685 6.37046 4.70365 6.95825 4.39061L6.4882 3.50798C5.77652 3.88699 5.15428 4.41097 4.66062 5.04042L5.44749 5.65754ZM7.375 1.97364C7.375 2.24398 7.32341 2.51184 7.22301 2.76285L8.15149 3.13424C8.29914 2.76511 8.375 2.3712 8.375 1.97364H7.375ZM7.375 1.60417V1.97364H8.375V1.60417H7.375ZM6.95825 4.39061C7.44828 4.12965 7.91751 3.71919 8.15149 3.13424L7.22301 2.76285C7.10249 3.06415 6.84067 3.32026 6.4882 3.50798L6.95825 4.39061ZM3.869 6.47917C4.5297 6.47917 5.08768 6.11632 5.44749 5.65754L4.66062 5.04042C4.43988 5.32188 4.14905 5.47917 3.869 5.47917V6.47917ZM7.86348 11.1667C7.63508 11.1667 7.40817 11.1298 7.19149 11.0576L6.87527 12.0063C7.19391 12.1125 7.5276 12.1667 7.86348 12.1667V11.1667ZM10.7528 10.9279C10.6349 11.0744 10.4377 11.1667 10.2061 11.1667V12.1667C10.6955 12.1667 11.1974 11.9702 11.5317 11.5552L10.7528 10.9279ZM11.4495 5.60417C11.8401 5.60417 12.119 5.86068 12.1506 6.15744L13.145 6.05157C13.0498 5.15732 12.2566 4.60417 11.4495 4.60417V5.60417ZM5.37473 10.452C5.05609 10.3458 4.7224 10.2917 4.38652 10.2917V11.2917C4.61492 11.2917 4.84183 11.3285 5.0585 11.4007L5.37473 10.452ZM8.75151 4.14139C8.59849 4.46308 8.63326 4.81942 8.7826 5.09233C8.93429 5.36953 9.23183 5.60417 9.62611 5.60417V4.60417C9.6303 4.60417 9.63636 4.60485 9.64319 4.60693C9.64986 4.60895 9.65513 4.61165 9.65874 4.61399C9.66549 4.61839 9.66389 4.61967 9.65985 4.61228C9.6558 4.60488 9.65291 4.5951 9.65245 4.58574C9.65203 4.57726 9.65368 4.57278 9.65455 4.57094L8.75151 4.14139ZM1.33235 6.07416C0.996658 6.92599 0.8125 7.85355 0.8125 8.82292H1.8125C1.8125 7.98109 1.97228 7.17778 2.26271 6.44081L1.33235 6.07416ZM3.5304 5.04167H2.91629V6.04167H3.5304V5.04167ZM3.5625 8.82292C3.5625 7.92059 3.81362 7.07843 4.24952 6.36081L3.39484 5.84166C2.86658 6.71133 2.5625 7.73238 2.5625 8.82292H3.5625ZM2.76668 12.1667H3.29623V11.1667H2.76668V12.1667ZM0.8125 8.82292C0.8125 9.58463 0.92621 10.3207 1.13792 11.0146L2.09439 10.7227C1.91122 10.1224 1.8125 9.48464 1.8125 8.82292H0.8125ZM3.15325 11.3642C3.13115 11.3194 3.13812 11.2743 3.15552 11.2439C3.1747 11.2104 3.22457 11.1667 3.29623 11.1667V12.1667C3.97226 12.1667 4.30834 11.4452 4.05002 10.9217L3.15325 11.3642ZM3.5304 6.04167C3.45297 6.04167 3.4037 5.99173 3.38778 5.96055C3.37368 5.93292 3.36715 5.88724 3.39484 5.84166L4.24952 6.36081C4.56595 5.83988 4.24994 5.04167 3.5304 5.04167V6.04167ZM2.76668 11.1667C2.43065 11.1667 2.17117 10.9744 2.09439 10.7227L1.13792 11.0146C1.36373 11.7546 2.06588 12.1667 2.76668 12.1667V11.1667ZM2.26271 6.44081C2.35365 6.21006 2.60242 6.04167 2.91629 6.04167V5.04167C2.25947 5.04167 1.59732 5.40182 1.33235 6.07416L2.26271 6.44081ZM4.05002 10.9217C3.9988 10.8179 3.95126 10.712 3.90759 10.6041L2.98065 10.9793C3.03359 11.1101 3.09119 11.2384 3.15325 11.3642L4.05002 10.9217ZM3.90759 10.6041C3.68521 10.0547 3.5625 9.45375 3.5625 8.82292H2.5625C2.5625 9.58452 2.71083 10.3127 2.98065 10.9793L3.90759 10.6041ZM4.38652 10.2917H3.44412V11.2917H4.38652V10.2917ZM9.62611 4.60417H8.3125V5.60417H9.62611V4.60417Z" fill="#6B7280"/>
</svg>
