<svg width="166" height="21" viewBox="0 0 166 21" fill="none" xmlns="http://www.w3.org/2000/svg">
<g clip-path="url(#clip0_2095_3444)">
<path fill-rule="evenodd" clip-rule="evenodd" d="M110.401 20.7349V5.50035H113.868V20.7386H110.401V20.7349ZM129.216 20.7349H124.779L120.297 14.7633V20.7349H116.831V5.50035H120.297V11.6487L124.249 5.50035H128.378L123.323 13.0403L129.219 20.7349H129.216ZM140.189 17.7049H133.697V14.7891H139.219V11.6708H133.697V8.53033H139.991V5.50035H130.23V20.7349H140.189V17.7049ZM142.307 15.2935V5.50035H145.774V15.0321C145.774 16.9576 146.987 17.7086 148.248 17.7086C149.509 17.7086 150.7 16.9576 150.7 15.0321V5.50035H154.166V15.2972C154.166 18.8131 151.383 21.0037 148.248 21.0037C145.112 21.0037 142.307 18.8131 142.307 15.2972V15.2935ZM166.004 17.7049H160.416V5.50035H156.949V20.7349H166.004V17.7049Z" fill="#EB004F"/>
<path d="M0.735352 14.7265H5.35269C5.35269 16.0224 6.64672 17.0238 8.23485 17.0238C9.73475 17.0238 10.8817 16.2581 10.8817 14.9327C10.8817 14.1374 10.4406 13.4011 8.64659 12.8121L6.23499 12.0757C1.7647 10.8682 0.91181 8.12903 0.91181 6.21459C0.91181 2.56241 4.02925 0 8.05839 0C12.0875 0 14.9109 2.32679 14.9109 6.27349H10.2935C10.2935 5.06592 9.5583 4.03506 7.97017 4.03506C6.52908 4.03506 5.58797 5.00701 5.58797 6.12623C5.58797 6.53857 5.70561 7.45161 7.58784 7.98177L9.70534 8.65919C12.5875 9.54278 15.5285 11.0154 15.5285 14.6971C15.5285 19.0561 11.764 21 8.05839 21C3.73515 21 0.735352 18.467 0.735352 14.7265Z" fill="#EB004F"/>
<path d="M46.1881 20.6466H40.2767L34.3065 12.6943V20.6466H29.6892V0.353439H34.3065V8.54138L39.5709 0.353439H45.0705L38.3357 10.3969L46.1881 20.6466Z" fill="#EB004F"/>
<path d="M88.8875 10.4558C88.8875 4.74194 93.4754 0 99.1809 0C102.739 0 105.857 1.79663 107.71 4.50631L104.122 7.00982C103.063 5.36045 101.504 4.35905 99.3868 4.35905C95.9752 4.35905 93.5342 7.09818 93.5342 10.4558C93.5342 13.8135 95.887 16.641 99.3573 16.641C101.504 16.641 103.063 15.6396 104.122 13.9902L107.71 16.4937C105.857 19.2034 102.739 21 99.1809 21C93.4754 21 88.8875 16.2286 88.8875 10.4558Z" fill="#EB004F"/>
<path d="M18.3223 20.7349V5.50035H21.7889V20.7386H18.3223V20.7349Z" fill="#EB004F"/>
<path fill-rule="evenodd" clip-rule="evenodd" d="M51.3568 17.7049H57.849V20.7349H47.8901V5.50035H57.6505V8.53033H51.3568V11.6708H56.8785V14.7891H51.3568V17.7049ZM59.9665 15.2935V5.50035H63.4332V15.0321C63.4332 16.9576 64.6464 17.7086 65.9073 17.7086C67.1683 17.7086 68.3594 16.9576 68.3594 15.0321V5.50035H71.826V15.2972C71.826 18.8131 69.0431 21.0037 65.9073 21.0037C62.7715 21.0037 59.9665 18.8131 59.9665 15.2972V15.2935ZM83.6635 17.7049H78.0756V5.50035H74.6089V20.7349H83.6635V17.7049Z" fill="#EB004F"/>
</g>
<defs>
<clipPath id="clip0_2095_3444">
<rect width="166" height="21" fill="white"/>
</clipPath>
</defs>
</svg>
