<svg width="40" height="40" viewBox="0 0 40 40" fill="none" xmlns="http://www.w3.org/2000/svg">
<path d="M32.9749 7.02513C31.608 5.65829 29.392 5.65829 28.0251 7.02513L26.4823 8.56799L31.432 13.5177L32.9749 11.9749C34.3417 10.608 34.3417 8.39196 32.9749 7.02513Z" fill="white"/>
<path d="M30.0178 14.932L25.0681 9.9822L15.2407 19.8096C14.4183 20.6319 13.8138 21.6463 13.4818 22.7609L12.4154 26.3407C12.3106 26.6926 12.407 27.0737 12.6667 27.3333C12.9263 27.593 13.3074 27.6894 13.6593 27.5846L17.2391 26.5182C18.3537 26.1862 19.3681 25.5817 20.1905 24.7593L30.0178 14.932Z" fill="white"/>
<path d="M11 11C8.79086 11 7 12.7908 7 15V29C7 31.2091 8.79086 33 11 33H25C27.2091 33 29 31.2091 29 29V22C29 21.4477 28.5523 21 28 21C27.4477 21 27 21.4477 27 22V29C27 30.1046 26.1046 31 25 31H11C9.89543 31 9 30.1046 9 29V15C9 13.8954 9.89543 13 11 13H18C18.5523 13 19 12.5523 19 12C19 11.4477 18.5523 11 18 11H11Z" fill="white"/>
</svg>
